<svg xmlns="http://www.w3.org/2000/svg" xmlns:xlink="http://www.w3.org/1999/xlink" viewBox="0 0 66 65" fill="#fff" fill-rule="evenodd" stroke="#000" stroke-linecap="round" stroke-linejoin="round"><use xlink:href="#A" x=".5" y=".5"/><symbol id="A" overflow="visible"><path d="M6.694 50.63c-.25 0-.5 0-.75.083-1.75.167-3.33 1.083-4.497 2.498-1.083 1.416-1.582 3.08-1.416 4.83a6.65 6.65 0 0 0 6.579 5.829c.25 0 .5 0 .75-.083 1.75-.167 3.33-1.083 4.497-2.415 1.083-1.416 1.582-3.08 1.416-4.83-.333-3.414-3.248-5.912-6.58-5.912M63.82 25.066c-.833-6.912-4.164-13.324-9.4-17.904C49.248 2.498 42.586 0 35.6 0c-1.083 0-2.165.083-3.248.167C16.77 1.916 5.528 15.906 7.36 31.396c.833 6.912 4.164 13.324 9.4 17.904s11.908 7.162 18.82 7.162c1.083 0 2.165-.083 3.248-.167 15.572-1.76 26.74-15.823 24.992-31.23" stroke="none" fill="#21c0c0" fill-rule="nonzero"/></symbol></svg>