<svg id="Capa_1" enable-background="new 0 0 512 512" height="512" viewBox="0 0 512 512" width="512" xmlns="http://www.w3.org/2000/svg"><g><path d="m106.025 106h-32.272l-73.753 180 16 15 15.254-15 58.746-141.006 58.746 141.006 15.725 15 15.529-15z" fill="#ffb64c"/><path d="m438.025 106h-32.272l-73.753 180 16 15 15.254-15 58.746-141.006 58.746 141.006 15.725 15 15.529-15z" fill="#ff9100"/><path d="m256 0h-15v76h15 15v-76z" fill="#ffd396"/><path d="m256 0h15v76h-15z" fill="#ffb64c"/><path d="m30 91h196v30h-196z" fill="#ffd396"/><path d="m286 91h196v30h-196z" fill="#ffb64c"/><path d="m256 136h-15v271h15 15v-271z" fill="#ffd396"/><path d="m256 136h15v271h-15z" fill="#ffb64c"/><path d="m0 286c0 41.422 33.578 75 75 75h30c41.422 0 75-33.578 75-75z" fill="#ffd396"/><path d="m332 286c0 41.422 33.578 75 75 75h30c41.422 0 75-33.578 75-75z" fill="#ffb64c"/><circle cx="256" cy="106" fill="#ffb64c" r="45"/><path d="m301 106c0-24.814-20.186-45-45-45v90c24.814 0 45-20.186 45-45z" fill="#ff9100"/><path d="m256 392c-41.353 0-75 33.647-75 75h75 75c0-41.353-33.647-75-75-75z" fill="#ffb64c"/><path d="m256 392v75h75c0-41.353-33.647-75-75-75z" fill="#ff9100"/><path d="m346 452h-90-90c-24.853 0-45 20.147-45 45v15h135 135v-15c0-24.853-20.147-45-45-45z" fill="#ffd396"/><path d="m391 497c0-24.853-20.147-45-45-45h-90v60h135z" fill="#ffb64c"/></g></svg>