<svg id="Layer_1" data-name="Layer 1" xmlns="http://www.w3.org/2000/svg" width="64" height="64" viewBox="0 0 64 64"><title>1</title><path d="M32,12.61c6.64,0,7.43,0,10.05.14a13.77,13.77,0,0,1,4.62.86,8.24,8.24,0,0,1,4.72,4.72,13.77,13.77,0,0,1,.86,4.62c0.12,2.62.14,3.41,0.14,10.05s0,7.43-.14,10.05a13.77,13.77,0,0,1-.86,4.62,8.24,8.24,0,0,1-4.72,4.72,13.76,13.76,0,0,1-4.62.86c-2.62.12-3.41,0.14-10.05,0.14s-7.43,0-10.05-.14a13.76,13.76,0,0,1-4.62-.86,8.24,8.24,0,0,1-4.72-4.72,13.77,13.77,0,0,1-.86-4.62c-0.12-2.62-.14-3.41-0.14-10.05s0-7.43.14-10.05a13.77,13.77,0,0,1,.86-4.62,8.24,8.24,0,0,1,4.72-4.72,13.77,13.77,0,0,1,4.62-.86c2.62-.12,3.41-0.14,10.05-0.14m0-4.48c-6.76,0-7.6,0-10.26.15a18.26,18.26,0,0,0-6,1.16,12.72,12.72,0,0,0-7.27,7.27,18.25,18.25,0,0,0-1.16,6C7.16,25.4,7.13,26.24,7.13,33s0,7.6.15,10.26a18.25,18.25,0,0,0,1.16,6,12.72,12.72,0,0,0,7.27,7.27,18.26,18.26,0,0,0,6,1.16c2.65,0.12,3.5.15,10.26,0.15s7.6,0,10.26-.15a18.26,18.26,0,0,0,6-1.16,12.72,12.72,0,0,0,7.27-7.27,18.25,18.25,0,0,0,1.16-6c0.12-2.65.15-3.5,0.15-10.26s0-7.6-.15-10.26a18.25,18.25,0,0,0-1.16-6,12.72,12.72,0,0,0-7.27-7.27,18.26,18.26,0,0,0-6-1.16C39.6,8.15,38.76,8.12,32,8.12"/><path d="M32,20.23A12.77,12.77,0,1,0,44.77,33,12.77,12.77,0,0,0,32,20.23m0,21.06A8.29,8.29,0,1,1,40.29,33,8.29,8.29,0,0,1,32,41.29"/><path d="M48.26,19.72a3,3,0,1,1-3-3,3,3,0,0,1,3,3"/></svg>