<?xml version="1.0" encoding="UTF-8"?>
<svg xmlns="http://www.w3.org/2000/svg" xmlns:xlink="http://www.w3.org/1999/xlink" width="70px" height="70px" viewBox="0 0 70 70" version="1.1">
<g id="surface1">
<path style=" stroke:none;fill-rule:nonzero;fill:rgb(91.764706%,35.294118%,27.843137%);fill-opacity:1;" d="M 9.234375 36.945312 L 60.765625 36.945312 L 60.765625 53.472656 L 9.234375 53.472656 Z M 9.234375 36.945312 "/>
<path style=" stroke:none;fill-rule:nonzero;fill:rgb(81.568627%,81.176471%,80.784314%);fill-opacity:1;" d="M 14.097656 41.804688 L 26.734375 41.804688 L 26.734375 53.472656 L 14.097656 53.472656 Z M 14.097656 41.804688 "/>
<path style=" stroke:none;fill-rule:nonzero;fill:rgb(57.254902%,82.745098%,96.078431%);fill-opacity:1;" d="M 31.597656 41.804688 L 36.457031 41.804688 L 36.457031 46.667969 L 31.597656 46.667969 Z M 31.597656 41.804688 "/>
<path style=" stroke:none;fill-rule:nonzero;fill:rgb(57.254902%,82.745098%,96.078431%);fill-opacity:1;" d="M 36.457031 41.804688 L 41.320312 41.804688 L 41.320312 46.667969 L 36.457031 46.667969 Z M 36.457031 41.804688 "/>
<path style=" stroke:none;fill-rule:nonzero;fill:rgb(57.254902%,82.745098%,96.078431%);fill-opacity:1;" d="M 41.320312 41.804688 L 46.179688 41.804688 L 46.179688 46.667969 L 41.320312 46.667969 Z M 41.320312 41.804688 "/>
<path style=" stroke:none;fill-rule:nonzero;fill:rgb(57.254902%,82.745098%,96.078431%);fill-opacity:1;" d="M 46.179688 41.804688 L 51.042969 41.804688 L 51.042969 46.667969 L 46.179688 46.667969 Z M 46.179688 41.804688 "/>
<path style=" stroke:none;fill-rule:nonzero;fill:rgb(57.254902%,82.745098%,96.078431%);fill-opacity:1;" d="M 51.042969 41.804688 L 55.902344 41.804688 L 55.902344 46.667969 L 51.042969 46.667969 Z M 51.042969 41.804688 "/>
<path style=" stroke:none;fill-rule:nonzero;fill:rgb(24.705882%,24.705882%,24.705882%);fill-opacity:1;" d="M 54.445312 36.945312 L 48.609375 36.945312 L 49.582031 21.390625 L 53.472656 21.390625 Z M 54.445312 36.945312 "/>
<path style=" stroke:none;fill-rule:nonzero;fill:rgb(81.568627%,81.176471%,80.784314%);fill-opacity:1;" d="M 14.09375 30.140625 L 14.097656 36.945312 L 23.816406 36.945312 Z M 14.09375 30.140625 "/>
<path style=" stroke:none;fill-rule:nonzero;fill:rgb(81.568627%,81.176471%,80.784314%);fill-opacity:1;" d="M 24.304688 30.140625 L 24.308594 36.945312 L 34.027344 36.945312 Z M 24.304688 30.140625 "/>
<path style=" stroke:none;fill-rule:nonzero;fill:rgb(81.568627%,81.176471%,80.784314%);fill-opacity:1;" d="M 34.027344 30.140625 L 34.03125 36.945312 L 43.75 36.945312 Z M 34.027344 30.140625 "/>
<path style="fill:none;stroke-width:2;stroke-linecap:round;stroke-linejoin:round;stroke:rgb(0%,0%,0%);stroke-opacity:1;stroke-miterlimit:10;" d="M 9.498214 38.000893 L 62.501786 38.000893 L 62.501786 55.000446 L 9.498214 55.000446 Z M 9.498214 38.000893 " transform="matrix(0.972222,0,0,0.972222,0,0)"/>
<path style="fill:none;stroke-width:2;stroke-linecap:round;stroke-linejoin:round;stroke:rgb(0%,0%,0%);stroke-opacity:1;stroke-miterlimit:10;" d="M 14.500446 42.999107 L 27.498214 42.999107 L 27.498214 55.000446 L 14.500446 55.000446 Z M 14.500446 42.999107 " transform="matrix(0.972222,0,0,0.972222,0,0)"/>
<path style="fill:none;stroke-width:2;stroke-linecap:round;stroke-linejoin:round;stroke:rgb(0%,0%,0%);stroke-opacity:1;stroke-miterlimit:10;" d="M 14.500446 47.000893 L 27.498214 47.000893 " transform="matrix(0.972222,0,0,0.972222,0,0)"/>
<path style="fill:none;stroke-width:2;stroke-linecap:round;stroke-linejoin:round;stroke:rgb(0%,0%,0%);stroke-opacity:1;stroke-miterlimit:10;" d="M 14.500446 50.998661 L 27.498214 50.998661 " transform="matrix(0.972222,0,0,0.972222,0,0)"/>
<path style="fill:none;stroke-width:2;stroke-linecap:round;stroke-linejoin:round;stroke:rgb(0%,0%,0%);stroke-opacity:1;stroke-miterlimit:10;" d="M 32.500446 42.999107 L 37.498661 42.999107 L 37.498661 48.001339 L 32.500446 48.001339 Z M 32.500446 42.999107 " transform="matrix(0.972222,0,0,0.972222,0,0)"/>
<path style="fill:none;stroke-width:2;stroke-linecap:round;stroke-linejoin:round;stroke:rgb(0%,0%,0%);stroke-opacity:1;stroke-miterlimit:10;" d="M 37.498661 42.999107 L 42.500893 42.999107 L 42.500893 48.001339 L 37.498661 48.001339 Z M 37.498661 42.999107 " transform="matrix(0.972222,0,0,0.972222,0,0)"/>
<path style="fill:none;stroke-width:2;stroke-linecap:round;stroke-linejoin:round;stroke:rgb(0%,0%,0%);stroke-opacity:1;stroke-miterlimit:10;" d="M 42.500893 42.999107 L 47.499107 42.999107 L 47.499107 48.001339 L 42.500893 48.001339 Z M 42.500893 42.999107 " transform="matrix(0.972222,0,0,0.972222,0,0)"/>
<path style="fill:none;stroke-width:2;stroke-linecap:round;stroke-linejoin:round;stroke:rgb(0%,0%,0%);stroke-opacity:1;stroke-miterlimit:10;" d="M 47.499107 42.999107 L 52.501339 42.999107 L 52.501339 48.001339 L 47.499107 48.001339 Z M 47.499107 42.999107 " transform="matrix(0.972222,0,0,0.972222,0,0)"/>
<path style="fill:none;stroke-width:2;stroke-linecap:round;stroke-linejoin:round;stroke:rgb(0%,0%,0%);stroke-opacity:1;stroke-miterlimit:10;" d="M 52.501339 42.999107 L 57.499554 42.999107 L 57.499554 48.001339 L 52.501339 48.001339 Z M 52.501339 42.999107 " transform="matrix(0.972222,0,0,0.972222,0,0)"/>
<path style="fill:none;stroke-width:2;stroke-linecap:round;stroke-linejoin:round;stroke:rgb(0%,0%,0%);stroke-opacity:1;stroke-miterlimit:10;" d="M 56.000893 38.000893 L 49.998214 38.000893 L 50.998661 22.001786 L 55.000446 22.001786 Z M 56.000893 38.000893 " transform="matrix(0.972222,0,0,0.972222,0,0)"/>
<path style="fill:none;stroke-width:2;stroke-linecap:round;stroke-linejoin:round;stroke:rgb(0%,0%,0%);stroke-opacity:1;stroke-miterlimit:10;" d="M 14.496429 31.001786 L 14.500446 38.000893 L 24.496875 38.000893 Z M 14.496429 31.001786 " transform="matrix(0.972222,0,0,0.972222,0,0)"/>
<path style="fill:none;stroke-width:2;stroke-linecap:round;stroke-linejoin:round;stroke:rgb(0%,0%,0%);stroke-opacity:1;stroke-miterlimit:10;" d="M 24.999107 31.001786 L 25.003125 38.000893 L 34.999554 38.000893 Z M 24.999107 31.001786 " transform="matrix(0.972222,0,0,0.972222,0,0)"/>
<path style="fill:none;stroke-width:2;stroke-linecap:round;stroke-linejoin:round;stroke:rgb(0%,0%,0%);stroke-opacity:1;stroke-miterlimit:10;" d="M 34.999554 31.001786 L 35.003571 38.000893 L 45 38.000893 Z M 34.999554 31.001786 " transform="matrix(0.972222,0,0,0.972222,0,0)"/>
<path style="fill:none;stroke-width:2;stroke-linecap:round;stroke-linejoin:miter;stroke:rgb(0%,0%,0%);stroke-opacity:1;stroke-miterlimit:10;" d="M 54 19.000446 C 54.044196 17.04375 53.674554 14.998661 51.922768 13.435714 C 50.432143 12.105804 48.88125 12.383036 46.301786 11.330357 C 44.783036 10.707589 45 6.999107 42.087054 5.480357 " transform="matrix(0.972222,0,0,0.972222,0,0)"/>
<path style="fill:none;stroke-width:2;stroke-linecap:round;stroke-linejoin:miter;stroke:rgb(0%,0%,0%);stroke-opacity:1;stroke-miterlimit:10;" d="M 50.998661 19.000446 C 50.355804 17.152232 50.191071 15.850446 48.001339 14.998661 C 46.141071 14.279464 41.998661 14.998661 40.998214 13.001786 " transform="matrix(0.972222,0,0,0.972222,0,0)"/>
</g>
</svg>
