<?xml version="1.0" standalone="no"?>
<!DOCTYPE svg PUBLIC "-//W3C//DTD SVG 20010904//EN"
 "http://www.w3.org/TR/2001/REC-SVG-20010904/DTD/svg10.dtd">
<svg version="1.0" xmlns="http://www.w3.org/2000/svg"
 width="700.000000pt" height="700.000000pt" viewBox="0 0 700.000000 700.000000"
 preserveAspectRatio="xMidYMid meet">
<metadata>
Created by potrace 1.11, written by Peter Selinger 2001-2013
</metadata>
<g transform="translate(0.000000,700.000000) scale(0.100000,-0.100000)"
fill="#000000" stroke="none">
<path d="M3265 6989 c-466 -48 -880 -211 -1258 -496 -121 -91 -338 -304 -432
-423 -288 -364 -475 -816 -523 -1265 -9 -89 -9 -441 0 -520 14 -118 20 -151
39 -245 64 -303 171 -564 352 -854 48 -76 87 -142 87 -147 0 -5 5 -9 10 -9 6
0 10 -4 10 -9 0 -4 49 -87 108 -182 60 -96 200 -321 313 -502 112 -180 211
-340 221 -356 9 -16 68 -111 130 -212 63 -101 274 -440 468 -754 194 -314 367
-592 385 -620 17 -27 69 -111 115 -185 46 -74 93 -143 104 -153 86 -76 213
-72 287 9 20 21 792 1300 955 1581 11 18 75 126 144 240 69 114 130 215 135
225 6 11 65 110 132 221 636 1058 676 1129 751 1327 59 157 108 336 128 470 3
19 7 46 10 60 26 152 26 626 -1 703 -2 6 -7 30 -9 52 -17 138 -78 353 -152
533 -134 325 -357 642 -612 872 -46 41 -91 82 -100 90 -37 33 -231 170 -305
214 -247 148 -596 277 -837 310 -19 3 -69 10 -110 16 -87 14 -443 20 -545 9z
m508 -413 c15 -3 55 -11 90 -16 479 -82 944 -363 1254 -760 222 -285 383 -675
421 -1018 9 -89 9 -422 -1 -492 -48 -345 -138 -578 -379 -975 -171 -283 -968
-1615 -991 -1655 -10 -19 -25 -42 -33 -51 -8 -8 -14 -19 -14 -22 0 -4 -12 -26
-27 -50 -15 -23 -31 -51 -37 -62 -20 -37 -479 -799 -504 -837 l-24 -37 -62
102 c-34 56 -192 311 -351 567 -159 256 -379 611 -490 790 -111 179 -266 429
-345 555 -79 127 -148 239 -154 250 -6 11 -21 34 -34 52 -12 17 -22 34 -22 37
0 4 -8 19 -18 34 -61 90 -79 119 -85 132 -4 8 -43 71 -86 140 -120 189 -227
376 -261 460 -17 41 -35 84 -40 95 -29 66 -90 291 -104 380 -9 61 -16 111 -22
160 -6 53 -6 309 0 360 2 17 6 57 10 90 4 33 18 112 32 175 144 651 598 1195
1216 1454 87 36 237 85 313 102 61 14 167 34 210 39 28 4 52 9 54 11 6 5 454
-3 484 -10z"/>
<path d="M3335 5758 c-27 -4 -65 -11 -84 -13 -54 -8 -233 -71 -303 -106 -333
-168 -572 -479 -654 -854 -23 -104 -27 -333 -9 -438 58 -327 225 -603 483
-796 213 -160 463 -240 745 -238 363 2 686 153 932 437 106 122 220 349 249
494 3 12 11 51 19 88 15 68 17 339 3 403 -4 17 -9 44 -12 60 -4 17 -19 71 -35
120 -134 424 -482 735 -928 831 -86 19 -328 26 -406 12z m245 -402 c281 -23
545 -212 668 -478 64 -138 88 -346 58 -495 -17 -87 -63 -206 -96 -252 -11 -16
-20 -32 -20 -36 0 -13 -63 -89 -119 -145 -70 -70 -132 -113 -226 -156 -122
-57 -218 -77 -355 -76 -386 4 -717 277 -795 656 -15 75 -22 255 -11 287 3 8 8
27 10 42 3 16 12 52 21 80 101 318 381 544 710 574 33 3 61 6 63 8 2 2 11 1
20 -1 9 -1 42 -5 72 -8z"/>
</g>
</svg>
